<?xml version="1.0" encoding="UTF-8" standalone="no"?>
<svg xmlns="http://www.w3.org/2000/svg" viewBox="0 0 171.5 171.5" version="1.1">
<path d="m 37.25514,117.74467 q -5.05934,-7.97229 -7.66566,-17.1711 l -29.58948,0 0,-28.82291 29.28285,0 q 1.22651,-4.75271 3.06627,-9.04549 1.83976,-4.44609 4.44608,-8.43223 L 16.71115,34.18889 37.10183,13.79821 57.49251,34.3422 q 3.83283,-2.14639 7.97229,-3.83284 4.13946,-1.68644 8.58555,-2.60632 l 0,-27.90304 28.82292,0 0,28.51629 q 4.44608,1.22651 8.43223,3.21958 3.98615,1.83976 7.66567,4.29278 l 20.54399,-20.544 20.39068,20.39068 -21.15725,21.15725 q 1.83976,3.52621 3.21958,7.20573 1.53314,3.5262 2.45302,7.51235 l 26.98315,0 0,28.82291 -27.28978,0 q -0.91988,3.98615 -2.45301,7.51236 -1.53314,3.52621 -3.52621,6.8991 l 20.23737,20.08405 -20.39068,20.39068 -19.77743,-19.77742 q -7.20573,4.5994 -15.33133,6.8991 l 0,28.82291 -28.82292,0 0,-28.05635 Q 65.4648,141.35493 58.41239,137.36878 L 38.63496,157.14621 18.24429,136.75553 37.25514,117.74467 Z M 65.15818,86.16212 q 0,4.90603 1.83976,9.1988 1.83976,4.13946 4.90603,7.35904 3.21958,3.06627 7.35904,4.90603 4.29277,1.83976 9.1988,1.83976 4.75271,0 9.04549,-1.83976 4.29277,-1.83976 7.35904,-4.90603 3.21958,-3.21958 5.05934,-7.35904 1.83976,-4.29277 1.83976,-9.1988 0,-4.75272 -1.83976,-9.04549 -1.83976,-4.29278 -5.05934,-7.35904 -3.06627,-3.21958 -7.35904,-5.05934 -4.29278,-1.83976 -9.04549,-1.83976 -4.90603,0 -9.1988,1.83976 -4.13946,1.83976 -7.35904,5.05934 -3.06627,3.06626 -4.90603,7.35904 -1.83976,4.29277 -1.83976,9.04549 z"/>
</svg>
